<svg width="747" height="21" viewBox="0 0 747 21" fill="none" xmlns="http://www.w3.org/2000/svg">
<path d="M11.8708 11.0146C11.8708 12.2686 11.6598 13.3643 11.2379 14.3018C10.8161 15.2334 10.2184 15.9453 9.44498 16.4375C8.67154 16.9297 7.7692 17.1758 6.73795 17.1758C5.73013 17.1758 4.83658 16.9297 4.05728 16.4375C3.27798 15.9395 2.67154 15.2334 2.23795 14.3193C1.81021 13.3994 1.59048 12.3359 1.57877 11.1289V10.2061C1.57877 8.97559 1.79263 7.88867 2.22037 6.94531C2.6481 6.00195 3.25162 5.28125 4.03091 4.7832C4.81607 4.2793 5.71255 4.02734 6.72037 4.02734C7.74576 4.02734 8.6481 4.27637 9.4274 4.77441C10.2126 5.2666 10.8161 5.98438 11.2379 6.92773C11.6598 7.86523 11.8708 8.95801 11.8708 10.2061V11.0146ZM10.192 10.1885C10.192 8.6709 9.88736 7.50781 9.27798 6.69922C8.66861 5.88477 7.81607 5.47754 6.72037 5.47754C5.65396 5.47754 4.81314 5.88477 4.19791 6.69922C3.58853 7.50781 3.27505 8.63281 3.25748 10.0742V11.0146C3.25748 12.4854 3.56509 13.6426 4.18033 14.4863C4.80142 15.3242 5.65396 15.7432 6.73795 15.7432C7.82779 15.7432 8.67154 15.3477 9.2692 14.5566C9.86685 13.7598 10.1745 12.6201 10.192 11.1377V10.1885ZM21.9254 17H20.2995V8.83496H15.9225V17H14.2878V7.49023H21.9254V17ZM30.6881 7.49023H32.3141V17H30.6881V10.0654L26.3024 17H24.6764V7.49023H26.3024V14.4336L30.6881 7.49023ZM38.7389 15.8486C39.319 15.8486 39.8258 15.6729 40.2594 15.3213C40.693 14.9697 40.9333 14.5303 40.9801 14.0029H42.5182C42.4889 14.5479 42.3014 15.0664 41.9557 15.5586C41.61 16.0508 41.1471 16.4434 40.567 16.7363C39.9928 17.0293 39.3835 17.1758 38.7389 17.1758C37.444 17.1758 36.4128 16.7451 35.6452 15.8838C34.8835 15.0166 34.5026 13.833 34.5026 12.333V12.0605C34.5026 11.1348 34.6725 10.3115 35.0124 9.59082C35.3522 8.87012 35.8385 8.31055 36.4713 7.91211C37.11 7.51367 37.8629 7.31445 38.7301 7.31445C39.7965 7.31445 40.6813 7.63379 41.3844 8.27246C42.0934 8.91113 42.4713 9.74023 42.5182 10.7598H40.9801C40.9333 10.1445 40.6989 9.64062 40.277 9.24805C39.861 8.84961 39.3454 8.65039 38.7301 8.65039C37.904 8.65039 37.2624 8.94922 36.8053 9.54688C36.3542 10.1387 36.1286 10.9971 36.1286 12.1221V12.4297C36.1286 13.5254 36.3542 14.3691 36.8053 14.9609C37.2565 15.5527 37.901 15.8486 38.7389 15.8486ZM50.2174 17C50.1237 16.8125 50.0475 16.4785 49.9889 15.998C49.2331 16.7832 48.3307 17.1758 47.2819 17.1758C46.3444 17.1758 45.5739 16.9121 44.9704 16.3848C44.3727 15.8516 44.0739 15.1777 44.0739 14.3633C44.0739 13.373 44.4489 12.6055 45.1989 12.0605C45.9547 11.5098 47.0153 11.2344 48.3805 11.2344H49.9626V10.4873C49.9626 9.91895 49.7926 9.46777 49.4528 9.13379C49.1129 8.79395 48.612 8.62402 47.9499 8.62402C47.3698 8.62402 46.8835 8.77051 46.4909 9.06348C46.0983 9.35645 45.902 9.71094 45.902 10.127H44.2672C44.2672 9.65234 44.4342 9.19531 44.7682 8.75586C45.1081 8.31055 45.5651 7.95898 46.1393 7.70117C46.7194 7.44336 47.3551 7.31445 48.0465 7.31445C49.1422 7.31445 50.0006 7.58984 50.6217 8.14062C51.2428 8.68555 51.5651 9.43848 51.5885 10.3994V14.7764C51.5885 15.6494 51.6999 16.3438 51.9225 16.8594V17H50.2174ZM47.5192 15.7607C48.029 15.7607 48.5124 15.6289 48.9694 15.3652C49.4264 15.1016 49.7575 14.7588 49.9626 14.3369V12.3857H48.6881C46.696 12.3857 45.6999 12.9688 45.6999 14.1348C45.6999 14.6445 45.8698 15.043 46.2096 15.3301C46.5495 15.6172 46.986 15.7607 47.5192 15.7607ZM61.9069 17H60.2809V12.9395H55.9128V17H54.278V7.49023H55.9128V11.6123H60.2809V7.49023H61.9069V17ZM70.6784 7.49023H72.3044V17H70.6784V10.0654L66.2926 17H64.6667V7.49023H66.2926V14.4336L70.6784 7.49023ZM78.861 17.1758C77.5719 17.1758 76.5231 16.7539 75.7145 15.9102C74.9059 15.0605 74.5016 13.9268 74.5016 12.5088V12.21C74.5016 11.2666 74.6803 10.4258 75.0378 9.6875C75.401 8.94336 75.9049 8.36328 76.5495 7.94727C77.1999 7.52539 77.903 7.31445 78.6588 7.31445C79.8952 7.31445 80.8561 7.72168 81.5417 8.53613C82.2272 9.35059 82.57 10.5166 82.57 12.0342V12.7109H76.1276C76.151 13.6484 76.4235 14.4072 76.945 14.9873C77.4723 15.5615 78.1403 15.8486 78.9489 15.8486C79.5231 15.8486 80.0094 15.7314 80.4079 15.4971C80.8063 15.2627 81.1549 14.9521 81.4538 14.5654L82.4469 15.3389C81.6501 16.5635 80.4547 17.1758 78.861 17.1758ZM78.6588 8.65039C78.0026 8.65039 77.4518 8.89062 77.0065 9.37109C76.5612 9.8457 76.2858 10.5137 76.1803 11.375H80.944V11.252C80.8971 10.4258 80.6745 9.78711 80.276 9.33594C79.8776 8.87891 79.3385 8.65039 78.6588 8.65039Z" fill="#FF8F27"/>
<path d="M126.715 11.9902V17H125.027V4.20312H129.747C131.147 4.20312 132.243 4.56055 133.034 5.27539C133.831 5.99023 134.229 6.93652 134.229 8.11426C134.229 9.35645 133.84 10.3145 133.06 10.9883C132.287 11.6562 131.176 11.9902 129.729 11.9902H126.715ZM126.715 10.6104H129.747C130.649 10.6104 131.34 10.3994 131.821 9.97754C132.301 9.5498 132.542 8.93457 132.542 8.13184C132.542 7.37012 132.301 6.76074 131.821 6.30371C131.34 5.84668 130.681 5.60938 129.843 5.5918H126.715V10.6104ZM139.951 17.1758C138.662 17.1758 137.613 16.7539 136.804 15.9102C135.996 15.0605 135.591 13.9268 135.591 12.5088V12.21C135.591 11.2666 135.77 10.4258 136.128 9.6875C136.491 8.94336 136.995 8.36328 137.639 7.94727C138.29 7.52539 138.993 7.31445 139.749 7.31445C140.985 7.31445 141.946 7.72168 142.632 8.53613C143.317 9.35059 143.66 10.5166 143.66 12.0342V12.7109H137.217C137.241 13.6484 137.513 14.4072 138.035 14.9873C138.562 15.5615 139.23 15.8486 140.039 15.8486C140.613 15.8486 141.099 15.7314 141.498 15.4971C141.896 15.2627 142.245 14.9521 142.544 14.5654L143.537 15.3389C142.74 16.5635 141.545 17.1758 139.951 17.1758ZM139.749 8.65039C139.092 8.65039 138.542 8.89062 138.096 9.37109C137.651 9.8457 137.376 10.5137 137.27 11.375H142.034V11.252C141.987 10.4258 141.764 9.78711 141.366 9.33594C140.967 8.87891 140.428 8.65039 139.749 8.65039ZM145.69 7.49023H147.325V15.6729H151.702V7.49023H153.328V15.6729H154.462L154.303 19.8213H152.844V17H145.69V7.49023ZM160.166 17.1758C158.877 17.1758 157.828 16.7539 157.019 15.9102C156.211 15.0605 155.806 13.9268 155.806 12.5088V12.21C155.806 11.2666 155.985 10.4258 156.342 9.6875C156.706 8.94336 157.21 8.36328 157.854 7.94727C158.505 7.52539 159.208 7.31445 159.964 7.31445C161.2 7.31445 162.161 7.72168 162.846 8.53613C163.532 9.35059 163.875 10.5166 163.875 12.0342V12.7109H157.432C157.456 13.6484 157.728 14.4072 158.25 14.9873C158.777 15.5615 159.445 15.8486 160.254 15.8486C160.828 15.8486 161.314 15.7314 161.713 15.4971C162.111 15.2627 162.46 14.9521 162.758 14.5654L163.752 15.3389C162.955 16.5635 161.759 17.1758 160.166 17.1758ZM159.964 8.65039C159.307 8.65039 158.757 8.89062 158.311 9.37109C157.866 9.8457 157.59 10.5137 157.485 11.375H162.249V11.252C162.202 10.4258 161.979 9.78711 161.581 9.33594C161.182 8.87891 160.643 8.65039 159.964 8.65039ZM173.534 17H171.908V12.9395H167.54V17H165.905V7.49023H167.54V11.6123H171.908V7.49023H173.534V17ZM181.382 10.0918C181.382 9.64648 181.213 9.29492 180.873 9.03711C180.533 8.77344 180.067 8.6416 179.475 8.6416C178.901 8.6416 178.421 8.79102 178.034 9.08984C177.653 9.38867 177.463 9.74023 177.463 10.1445H175.845C175.845 9.31836 176.191 8.6416 176.882 8.11426C177.574 7.58691 178.438 7.32324 179.475 7.32324C180.589 7.32324 181.456 7.56348 182.077 8.04395C182.698 8.51855 183.008 9.19824 183.008 10.083C183.008 10.5107 182.88 10.9033 182.622 11.2607C182.364 11.6182 181.998 11.9023 181.523 12.1133C182.631 12.4883 183.184 13.2266 183.184 14.3281C183.184 15.2012 182.847 15.8926 182.173 16.4023C181.5 16.9121 180.6 17.167 179.475 17.167C178.38 17.167 177.474 16.9004 176.759 16.3672C176.05 15.8281 175.696 15.1016 175.696 14.1875H177.313C177.313 14.6504 177.518 15.0488 177.928 15.3828C178.344 15.7109 178.86 15.875 179.475 15.875C180.096 15.875 180.597 15.7314 180.978 15.4443C181.359 15.1572 181.549 14.7852 181.549 14.3281C181.549 13.7949 181.388 13.4141 181.066 13.1855C180.75 12.9512 180.255 12.834 179.581 12.834H177.955V11.4629H179.721C180.829 11.4336 181.382 10.9766 181.382 10.0918ZM191.446 7.49023H193.072V17H191.446V10.0654L187.06 17H185.434V7.49023H187.06V14.4336L191.446 7.49023ZM201.835 7.49023H203.461V17H201.835V10.0654L197.449 17H195.823V7.49023H197.449V14.4336L201.835 7.49023Z" fill="black"/>
<path d="M256.8 17H255.104V5.5918H248.794V17H247.106V4.20312H256.8V17ZM267.655 12.3506C267.655 13.7979 267.324 14.9639 266.662 15.8486C266 16.7334 265.103 17.1758 263.972 17.1758C262.818 17.1758 261.91 16.8096 261.248 16.0771V20.6562H259.622V7.49023H261.107L261.186 8.54492C261.848 7.72461 262.768 7.31445 263.946 7.31445C265.089 7.31445 265.991 7.74512 266.653 8.60645C267.321 9.46777 267.655 10.666 267.655 12.2012V12.3506ZM266.029 12.166C266.029 11.0938 265.8 10.2471 265.343 9.62598C264.886 9.00488 264.259 8.69434 263.463 8.69434C262.478 8.69434 261.74 9.13086 261.248 10.0039V14.5479C261.734 15.415 262.478 15.8486 263.48 15.8486C264.259 15.8486 264.878 15.541 265.335 14.9258C265.798 14.3047 266.029 13.3848 266.029 12.166ZM273.675 17.1758C272.386 17.1758 271.338 16.7539 270.529 15.9102C269.72 15.0605 269.316 13.9268 269.316 12.5088V12.21C269.316 11.2666 269.495 10.4258 269.852 9.6875C270.215 8.94336 270.719 8.36328 271.364 7.94727C272.014 7.52539 272.717 7.31445 273.473 7.31445C274.71 7.31445 275.671 7.72168 276.356 8.53613C277.042 9.35059 277.384 10.5166 277.384 12.0342V12.7109H270.942C270.965 13.6484 271.238 14.4072 271.759 14.9873C272.287 15.5615 272.955 15.8486 273.763 15.8486C274.338 15.8486 274.824 15.7314 275.222 15.4971C275.621 15.2627 275.969 14.9521 276.268 14.5654L277.261 15.3389C276.465 16.5635 275.269 17.1758 273.675 17.1758ZM273.473 8.65039C272.817 8.65039 272.266 8.89062 271.821 9.37109C271.376 9.8457 271.1 10.5137 270.995 11.375H275.758V11.252C275.712 10.4258 275.489 9.78711 275.09 9.33594C274.692 8.87891 274.153 8.65039 273.473 8.65039ZM284.75 14.8467L287.984 7.49023H290.014V17H288.388V10.083L285.312 17H284.187L281.049 9.93359V17H279.423V7.49023H281.533L284.75 14.8467ZM294.409 10.7686H296.879C297.957 10.7803 298.809 11.0615 299.436 11.6123C300.063 12.1631 300.377 12.9102 300.377 13.8535C300.377 14.8027 300.054 15.5645 299.41 16.1387C298.765 16.7129 297.898 17 296.808 17H292.783V7.49023H294.409V10.7686ZM294.409 12.0957V15.6729H296.826C297.435 15.6729 297.907 15.5176 298.241 15.207C298.575 14.8906 298.742 14.46 298.742 13.915C298.742 13.3877 298.578 12.957 298.25 12.623C297.927 12.2832 297.473 12.1074 296.887 12.0957H294.409ZM306.353 17.1758C305.064 17.1758 304.015 16.7539 303.207 15.9102C302.398 15.0605 301.994 13.9268 301.994 12.5088V12.21C301.994 11.2666 302.173 10.4258 302.53 9.6875C302.893 8.94336 303.397 8.36328 304.042 7.94727C304.692 7.52539 305.395 7.31445 306.151 7.31445C307.387 7.31445 308.348 7.72168 309.034 8.53613C309.719 9.35059 310.062 10.5166 310.062 12.0342V12.7109H303.62C303.643 13.6484 303.916 14.4072 304.437 14.9873C304.965 15.5615 305.632 15.8486 306.441 15.8486C307.015 15.8486 307.502 15.7314 307.9 15.4971C308.298 15.2627 308.647 14.9521 308.946 14.5654L309.939 15.3389C309.142 16.5635 307.947 17.1758 306.353 17.1758ZM306.151 8.65039C305.495 8.65039 304.944 8.89062 304.499 9.37109C304.053 9.8457 303.778 10.5137 303.673 11.375H308.436V11.252C308.389 10.4258 308.167 9.78711 307.768 9.33594C307.37 8.87891 306.831 8.65039 306.151 8.65039ZM319.985 12.3506C319.985 13.7979 319.654 14.9639 318.992 15.8486C318.33 16.7334 317.433 17.1758 316.302 17.1758C315.148 17.1758 314.24 16.8096 313.578 16.0771V20.6562H311.952V7.49023H313.437L313.516 8.54492C314.178 7.72461 315.098 7.31445 316.276 7.31445C317.419 7.31445 318.321 7.74512 318.983 8.60645C319.651 9.46777 319.985 10.666 319.985 12.2012V12.3506ZM318.359 12.166C318.359 11.0938 318.131 10.2471 317.673 9.62598C317.216 9.00488 316.59 8.69434 315.793 8.69434C314.808 8.69434 314.07 9.13086 313.578 10.0039V14.5479C314.064 15.415 314.808 15.8486 315.81 15.8486C316.59 15.8486 317.208 15.541 317.665 14.9258C318.128 14.3047 318.359 13.3848 318.359 12.166ZM323.835 10.7686H326.304C327.382 10.7803 328.235 11.0615 328.862 11.6123C329.489 12.1631 329.802 12.9102 329.802 13.8535C329.802 14.8027 329.48 15.5645 328.836 16.1387C328.191 16.7129 327.324 17 326.234 17H322.209V7.49023H323.835V10.7686ZM333.195 17H331.56V7.49023H333.195V17ZM323.835 12.0957V15.6729H326.252C326.861 15.6729 327.333 15.5176 327.667 15.207C328.001 14.8906 328.168 14.46 328.168 13.915C328.168 13.3877 328.004 12.957 327.675 12.623C327.353 12.2832 326.899 12.1074 326.313 12.0957H323.835Z" fill="black"/>
<path d="M384.093 13.6602H378.732L377.528 17H375.788L380.674 4.20312H382.151L387.047 17H385.315L384.093 13.6602ZM379.242 12.2715H383.592L381.413 6.28613L379.242 12.2715ZM391.476 12.9482H390.29V17H388.655V7.49023H390.29V11.5156H391.353L394.552 7.49023H396.521L392.759 12.0605L396.838 17H394.772L391.476 12.9482ZM405.301 8.80859H402.111V17H400.485V8.80859H397.356V7.49023H405.301V8.80859ZM410.127 17.1758C408.838 17.1758 407.789 16.7539 406.98 15.9102C406.172 15.0605 405.767 13.9268 405.767 12.5088V12.21C405.767 11.2666 405.946 10.4258 406.303 9.6875C406.667 8.94336 407.171 8.36328 407.815 7.94727C408.465 7.52539 409.169 7.31445 409.924 7.31445C411.161 7.31445 412.122 7.72168 412.807 8.53613C413.493 9.35059 413.836 10.5166 413.836 12.0342V12.7109H407.393C407.417 13.6484 407.689 14.4072 408.211 14.9873C408.738 15.5615 409.406 15.8486 410.215 15.8486C410.789 15.8486 411.275 15.7314 411.673 15.4971C412.072 15.2627 412.421 14.9521 412.719 14.5654L413.713 15.3389C412.916 16.5635 411.72 17.1758 410.127 17.1758ZM409.924 8.65039C409.268 8.65039 408.717 8.89062 408.272 9.37109C407.827 9.8457 407.551 10.5137 407.446 11.375H412.21V11.252C412.163 10.4258 411.94 9.78711 411.542 9.33594C411.143 8.87891 410.604 8.65039 409.924 8.65039ZM423.758 12.3506C423.758 13.7979 423.427 14.9639 422.765 15.8486C422.103 16.7334 421.207 17.1758 420.076 17.1758C418.922 17.1758 418.013 16.8096 417.351 16.0771V20.6562H415.725V7.49023H417.211L417.29 8.54492C417.952 7.72461 418.872 7.31445 420.049 7.31445C421.192 7.31445 422.094 7.74512 422.757 8.60645C423.424 9.46777 423.758 10.666 423.758 12.2012V12.3506ZM422.132 12.166C422.132 11.0938 421.904 10.2471 421.447 9.62598C420.99 9.00488 420.363 8.69434 419.566 8.69434C418.582 8.69434 417.843 9.13086 417.351 10.0039V14.5479C417.838 15.415 418.582 15.8486 419.584 15.8486C420.363 15.8486 420.981 15.541 421.438 14.9258C421.901 14.3047 422.132 13.3848 422.132 12.166ZM427.608 10.7686H430.078C431.156 10.7803 432.008 11.0615 432.635 11.6123C433.262 12.1631 433.576 12.9102 433.576 13.8535C433.576 14.8027 433.254 15.5645 432.609 16.1387C431.965 16.7129 431.097 17 430.007 17H425.982V7.49023H427.608V10.7686ZM436.968 17H435.334V7.49023H436.968V17ZM427.608 12.0957V15.6729H430.025C430.634 15.6729 431.106 15.5176 431.44 15.207C431.774 14.8906 431.941 14.46 431.941 13.915C431.941 13.3877 431.777 12.957 431.449 12.623C431.127 12.2832 430.673 12.1074 430.087 12.0957H427.608Z" fill="black"/>
<path d="M490.862 17H489.166V11.085H482.715V17H481.027V4.20312H482.715V9.70508H489.166V4.20312H490.862V17ZM499.475 17C499.382 16.8125 499.305 16.4785 499.247 15.998C498.491 16.7832 497.589 17.1758 496.54 17.1758C495.602 17.1758 494.832 16.9121 494.228 16.3848C493.631 15.8516 493.332 15.1777 493.332 14.3633C493.332 13.373 493.707 12.6055 494.457 12.0605C495.213 11.5098 496.273 11.2344 497.638 11.2344H499.22V10.4873C499.22 9.91895 499.05 9.46777 498.711 9.13379C498.371 8.79395 497.87 8.62402 497.208 8.62402C496.628 8.62402 496.141 8.77051 495.749 9.06348C495.356 9.35645 495.16 9.71094 495.16 10.127H493.525C493.525 9.65234 493.692 9.19531 494.026 8.75586C494.366 8.31055 494.823 7.95898 495.397 7.70117C495.977 7.44336 496.613 7.31445 497.304 7.31445C498.4 7.31445 499.258 7.58984 499.88 8.14062C500.501 8.68555 500.823 9.43848 500.846 10.3994V14.7764C500.846 15.6494 500.958 16.3438 501.18 16.8594V17H499.475ZM496.777 15.7607C497.287 15.7607 497.77 15.6289 498.227 15.3652C498.684 15.1016 499.015 14.7588 499.22 14.3369V12.3857H497.946C495.954 12.3857 494.958 12.9688 494.958 14.1348C494.958 14.6445 495.128 15.043 495.467 15.3301C495.807 15.6172 496.244 15.7607 496.777 15.7607ZM509.539 8.83496H505.153V17H503.518V7.49023H509.539V8.83496ZM518.987 12.3506C518.987 13.7979 518.656 14.9639 517.994 15.8486C517.332 16.7334 516.435 17.1758 515.304 17.1758C514.15 17.1758 513.242 16.8096 512.58 16.0771V20.6562H510.954V7.49023H512.439L512.518 8.54492C513.18 7.72461 514.1 7.31445 515.278 7.31445C516.421 7.31445 517.323 7.74512 517.985 8.60645C518.653 9.46777 518.987 10.666 518.987 12.2012V12.3506ZM517.361 12.166C517.361 11.0938 517.132 10.2471 516.675 9.62598C516.218 9.00488 515.591 8.69434 514.795 8.69434C513.81 8.69434 513.072 9.13086 512.58 10.0039V14.5479C513.066 15.415 513.81 15.8486 514.812 15.8486C515.591 15.8486 516.21 15.541 516.667 14.9258C517.13 14.3047 517.361 13.3848 517.361 12.166ZM526.932 17C526.839 16.8125 526.762 16.4785 526.704 15.998C525.948 16.7832 525.046 17.1758 523.997 17.1758C523.059 17.1758 522.289 16.9121 521.685 16.3848C521.088 15.8516 520.789 15.1777 520.789 14.3633C520.789 13.373 521.164 12.6055 521.914 12.0605C522.67 11.5098 523.73 11.2344 525.095 11.2344H526.677V10.4873C526.677 9.91895 526.507 9.46777 526.168 9.13379C525.828 8.79395 525.327 8.62402 524.665 8.62402C524.085 8.62402 523.598 8.77051 523.206 9.06348C522.813 9.35645 522.617 9.71094 522.617 10.127H520.982C520.982 9.65234 521.149 9.19531 521.483 8.75586C521.823 8.31055 522.28 7.95898 522.854 7.70117C523.434 7.44336 524.07 7.31445 524.761 7.31445C525.857 7.31445 526.715 7.58984 527.337 8.14062C527.958 8.68555 528.28 9.43848 528.303 10.3994V14.7764C528.303 15.6494 528.415 16.3438 528.637 16.8594V17H526.932ZM524.234 15.7607C524.744 15.7607 525.227 15.6289 525.684 15.3652C526.141 15.1016 526.472 14.7588 526.677 14.3369V12.3857H525.403C523.411 12.3857 522.415 12.9688 522.415 14.1348C522.415 14.6445 522.585 15.043 522.924 15.3301C523.264 15.6172 523.701 15.7607 524.234 15.7607ZM530.773 15.6729L531.336 14.9785C531.968 14.1582 532.329 12.9277 532.417 11.2871L532.566 7.49023H538.692V15.6729H539.914V19.7949H538.288V17H531.652V19.7949H530.026L530.035 15.6729H530.773ZM532.698 15.6729H537.066V8.99316H534.139L534.043 11.2607C533.943 13.1533 533.495 14.624 532.698 15.6729ZM543.491 10.7686H545.961C547.039 10.7803 547.891 11.0615 548.518 11.6123C549.145 12.1631 549.459 12.9102 549.459 13.8535C549.459 14.8027 549.136 15.5645 548.492 16.1387C547.847 16.7129 546.98 17 545.89 17H541.865V7.49023H543.491V10.7686ZM552.851 17H551.216V7.49023H552.851V17ZM543.491 12.0957V15.6729H545.908C546.517 15.6729 546.989 15.5176 547.323 15.207C547.657 14.8906 547.824 14.46 547.824 13.915C547.824 13.3877 547.66 12.957 547.332 12.623C547.009 12.2832 546.555 12.1074 545.969 12.0957H543.491Z" fill="black"/>
<path d="M602.346 5.48633H602.619C603.586 5.49219 604.467 5.71777 605.264 6.16309C606.061 6.6084 606.679 7.22363 607.119 8.00879C607.564 8.78809 607.787 9.66113 607.787 10.6279C607.787 11.6006 607.564 12.4824 607.119 13.2734C606.673 14.0645 606.058 14.6826 605.273 15.1279C604.488 15.5674 603.615 15.793 602.654 15.8047H602.346V17.5273H600.712V15.8047H600.465C599.487 15.8047 598.596 15.582 597.794 15.1367C596.997 14.6914 596.376 14.0762 595.93 13.291C595.491 12.5059 595.271 11.624 595.271 10.6455C595.271 9.66699 595.491 8.78516 595.93 8C596.376 7.21484 596.997 6.59961 597.794 6.1543C598.596 5.70898 599.487 5.48633 600.465 5.48633H600.712V3.67578H602.346V5.48633ZM600.465 6.81348C599.364 6.81348 598.491 7.15332 597.846 7.83301C597.208 8.50684 596.888 9.44434 596.888 10.6455C596.888 11.8525 597.208 12.793 597.846 13.4668C598.485 14.1348 599.364 14.4688 600.483 14.4688H600.712V6.81348H600.465ZM602.346 6.81348V14.4688H602.592C603.712 14.4688 604.585 14.126 605.212 13.4404C605.844 12.749 606.161 11.8115 606.161 10.6279C606.161 9.45605 605.844 8.52734 605.212 7.8418C604.585 7.15625 603.7 6.81348 602.557 6.81348H602.346ZM615.53 17C615.436 16.8125 615.36 16.4785 615.301 15.998C614.546 16.7832 613.643 17.1758 612.594 17.1758C611.657 17.1758 610.886 16.9121 610.283 16.3848C609.685 15.8516 609.386 15.1777 609.386 14.3633C609.386 13.373 609.761 12.6055 610.511 12.0605C611.267 11.5098 612.328 11.2344 613.693 11.2344H615.275V10.4873C615.275 9.91895 615.105 9.46777 614.765 9.13379C614.425 8.79395 613.924 8.62402 613.262 8.62402C612.682 8.62402 612.196 8.77051 611.803 9.06348C611.411 9.35645 611.215 9.71094 611.215 10.127H609.58C609.58 9.65234 609.747 9.19531 610.081 8.75586C610.421 8.31055 610.878 7.95898 611.452 7.70117C612.032 7.44336 612.668 7.31445 613.359 7.31445C614.455 7.31445 615.313 7.58984 615.934 8.14062C616.555 8.68555 616.878 9.43848 616.901 10.3994V14.7764C616.901 15.6494 617.012 16.3438 617.235 16.8594V17H615.53ZM612.832 15.7607C613.341 15.7607 613.825 15.6289 614.282 15.3652C614.739 15.1016 615.07 14.7588 615.275 14.3369V12.3857H614.001C612.008 12.3857 611.012 12.9688 611.012 14.1348C611.012 14.6445 611.182 15.043 611.522 15.3301C611.862 15.6172 612.298 15.7607 612.832 15.7607ZM622.412 12.9482H621.225V17H619.59V7.49023H621.225V11.5156H622.289L625.488 7.49023H627.457L623.695 12.0605L627.773 17H625.708L622.412 12.9482ZM636.237 8.80859H633.047V17H631.421V8.80859H628.292V7.49023H636.237V8.80859ZM639.594 10.7686H642.064C643.142 10.7803 643.995 11.0615 644.622 11.6123C645.249 12.1631 645.562 12.9102 645.562 13.8535C645.562 14.8027 645.24 15.5645 644.595 16.1387C643.951 16.7129 643.084 17 641.994 17H637.968V7.49023H639.594V10.7686ZM648.955 17H647.32V7.49023H648.955V17ZM639.594 12.0957V15.6729H642.011C642.621 15.6729 643.092 15.5176 643.426 15.207C643.76 14.8906 643.927 14.46 643.927 13.915C643.927 13.3877 643.763 12.957 643.435 12.623C643.113 12.2832 642.659 12.1074 642.073 12.0957H639.594Z" fill="black"/>
<path d="M702.44 12.9395C702.282 14.293 701.781 15.3389 700.937 16.0771C700.099 16.8096 698.983 17.1758 697.589 17.1758C696.077 17.1758 694.864 16.6338 693.95 15.5498C693.042 14.4658 692.588 13.0156 692.588 11.1992V9.96875C692.588 8.7793 692.798 7.7334 693.22 6.83105C693.648 5.92871 694.252 5.2373 695.031 4.75684C695.81 4.27051 696.713 4.02734 697.738 4.02734C699.097 4.02734 700.187 4.4082 701.007 5.16992C701.828 5.92578 702.305 6.97461 702.44 8.31641H700.744C700.597 7.29688 700.278 6.55859 699.786 6.10156C699.299 5.64453 698.617 5.41602 697.738 5.41602C696.66 5.41602 695.813 5.81445 695.198 6.61133C694.589 7.4082 694.284 8.54199 694.284 10.0127V11.252C694.284 12.6406 694.574 13.7451 695.154 14.5654C695.734 15.3857 696.546 15.7959 697.589 15.7959C698.526 15.7959 699.244 15.585 699.742 15.1631C700.246 14.7354 700.58 13.9941 700.744 12.9395H702.44ZM710.368 17C710.274 16.8125 710.198 16.4785 710.139 15.998C709.383 16.7832 708.481 17.1758 707.432 17.1758C706.495 17.1758 705.724 16.9121 705.121 16.3848C704.523 15.8516 704.224 15.1777 704.224 14.3633C704.224 13.373 704.599 12.6055 705.349 12.0605C706.105 11.5098 707.166 11.2344 708.531 11.2344H710.113V10.4873C710.113 9.91895 709.943 9.46777 709.603 9.13379C709.263 8.79395 708.762 8.62402 708.1 8.62402C707.52 8.62402 707.034 8.77051 706.641 9.06348C706.249 9.35645 706.052 9.71094 706.052 10.127H704.418C704.418 9.65234 704.585 9.19531 704.919 8.75586C705.258 8.31055 705.715 7.95898 706.29 7.70117C706.87 7.44336 707.506 7.31445 708.197 7.31445C709.293 7.31445 710.151 7.58984 710.772 8.14062C711.393 8.68555 711.715 9.43848 711.739 10.3994V14.7764C711.739 15.6494 711.85 16.3438 712.073 16.8594V17H710.368ZM707.67 15.7607C708.179 15.7607 708.663 15.6289 709.12 15.3652C709.577 15.1016 709.908 14.7588 710.113 14.3369V12.3857H708.839C706.846 12.3857 705.85 12.9688 705.85 14.1348C705.85 14.6445 706.02 15.043 706.36 15.3301C706.7 15.6172 707.136 15.7607 707.67 15.7607ZM720.44 7.49023H722.066V17H720.44V10.0654L716.054 17H714.428V7.49023H716.054V14.4336L720.44 7.49023ZM720.88 4.02734C720.88 4.73633 720.636 5.30762 720.15 5.74121C719.67 6.16895 719.037 6.38281 718.252 6.38281C717.466 6.38281 716.831 6.16602 716.344 5.73242C715.858 5.29883 715.615 4.73047 715.615 4.02734H716.942C716.942 4.4375 717.053 4.75977 717.276 4.99414C717.499 5.22266 717.824 5.33691 718.252 5.33691C718.662 5.33691 718.981 5.22266 719.21 4.99414C719.444 4.76562 719.561 4.44336 719.561 4.02734H720.88ZM731.743 8.80859H728.552V17H726.926V8.80859H723.798V7.49023H731.743V8.80859ZM735.1 10.7686H737.57C738.648 10.7803 739.501 11.0615 740.128 11.6123C740.755 12.1631 741.068 12.9102 741.068 13.8535C741.068 14.8027 740.746 15.5645 740.101 16.1387C739.457 16.7129 738.59 17 737.5 17H733.474V7.49023H735.1V10.7686ZM744.461 17H742.826V7.49023H744.461V17ZM735.1 12.0957V15.6729H737.517C738.127 15.6729 738.598 15.5176 738.932 15.207C739.266 14.8906 739.433 14.46 739.433 13.915C739.433 13.3877 739.269 12.957 738.941 12.623C738.619 12.2832 738.165 12.1074 737.579 12.0957H735.1Z" fill="black"/>
</svg>
